<?xml version="1.0" encoding="UTF-8"?>
<svg width="75px" height="75px" viewBox="0 0 73 58" version="1.1" xmlns="http://www.w3.org/2000/svg" xmlns:xlink="http://www.w3.org/1999/xlink">
    <title>113206E9-F580-44E7-A2E6-B8548A12E7E3</title>
    <g id="Web-VenteEnligne" stroke="none" stroke-width="1" fill="none" fill-rule="evenodd">
        <g id="HP---Boutique---Rev-2" transform="translate(-449.000000, -750.000000)" fill-rule="nonzero">
            <g id="1-copy-2" transform="translate(385.000000, 719.000000)">
                <g id="Group" transform="translate(64.549469, 31.000000)">
                    <path d="M61.7737229,44.8743054 C62.34722,44.9869211 62.9283434,45.0622519 63.5178557,45.0622519 C68.4429147,45.0622519 72.4505308,41.0643952 72.4505308,36.1503947 C72.4505308,33.4110943 71.2112584,30.8711542 69.0957252,29.1872454 C69.383999,28.3030601 69.5296612,27.3815899 69.5296612,26.4372922 C69.5296612,21.5232917 65.5228077,17.5246741 60.5969861,17.5246741 C55.6726897,17.5246741 51.6650736,21.5232917 51.6650736,26.4372922 C51.6650736,27.4576815 51.8427662,28.4757882 52.1836614,29.4330215 C49.470227,31.018772 47.7718519,33.926235 47.7718519,37.1220854 C47.7718519,42.0360859 51.779468,46.0339426 56.7037643,46.0339426 C57.6608639,46.0339426 58.594322,45.86578 59.4858354,45.5735879 L59.4858354,54.7860072 L44.2210506,54.7860072 L44.2210506,25.9860685 L47.8778573,25.9860685 L41.9446026,20.3393052 L41.9446026,8.37008444 L33.5556821,8.37008444 L33.5556821,12.3557665 L24.6077544,3.84034692 L1.33841414,25.9860685 L5.29264622,25.9860685 L5.29264622,54.7852463 L2.03205223e-15,54.7852463 L2.03205223e-15,57.0679966 L5.29264622,57.0679966 L5.29264622,57.0687575 L16.777841,57.0687575 L32.793053,57.0687575 L44.2210506,57.0687575 L44.2210506,57.0679966 L71.687139,57.0679966 L71.687139,54.7852463 L61.7737229,54.7852463 L61.7737229,44.8743054 Z M56.7030017,43.7504314 C53.0393313,43.7504314 50.0589767,40.7767686 50.0589767,37.1213245 C50.0589767,34.456594 51.6467705,32.061228 54.1047242,31.0180111 L55.2334154,30.5393945 L54.6759335,29.4490007 C54.1962397,28.5107903 53.952961,27.4980101 53.952961,26.4365312 C53.952961,22.7803262 56.9333157,19.8066634 60.5969861,19.8066634 C64.2614191,19.8066634 67.2417738,22.7803262 67.2417738,26.4365312 C67.2417738,27.3747416 67.048066,28.2832762 66.667514,29.135503 L66.2663711,30.0326239 L67.0961116,30.562222 C69.0164118,31.7880589 70.1626434,33.8767754 70.1626434,36.1503947 C70.1626434,39.8058388 67.1822887,42.7795016 63.5178557,42.7795016 C62.9245302,42.7795016 62.3418816,42.6836261 61.7737229,42.5299209 L61.7737229,36.5902046 L65.2993574,33.0709645 L63.681821,31.4570601 L61.7737229,33.3616347 L61.7737229,25.8711701 L59.4858354,25.8711701 L59.4858354,37.4226475 L55.5773611,33.4118552 L53.9361832,35.0036931 L59.4858354,40.6983942 L59.4858354,43.1348497 C58.6172008,43.5350919 57.6745912,43.7504314 56.7030017,43.7504314 Z M35.8435695,10.6528347 L39.6567152,10.6528347 L39.6567152,18.1623223 L35.8435695,14.5327493 L35.8435695,10.6528347 Z M19.0657285,54.7860072 L19.0657285,37.2917698 L30.5051655,37.2917698 L30.5051655,44.9640936 L27.4805784,44.8940893 L27.427957,47.1768396 L30.5051655,47.2476048 L30.5051655,54.7860072 L19.0657285,54.7860072 Z M41.9331632,23.7033182 L41.9331632,54.7860072 L32.793053,54.7860072 L32.793053,35.0090195 L16.777841,35.0090195 L16.777841,54.7860072 L11.6819531,54.7860072 L11.6819531,54.7852463 L7.58053364,54.7852463 L7.58053364,23.7033182 L7.05126901,23.7033182 L24.6077544,6.99510784 L42.1642398,23.7033182 L41.9331632,23.7033182 Z" id="Shape" fill="#0075C9"></path>
                    <path d="M19.5393212,21.5795995 C19.5393212,24.3516193 21.7989913,26.6054548 24.5772492,26.6054548 C27.3555072,26.6054548 29.6151773,24.3508584 29.6151773,21.5795995 C29.6151773,18.8083407 27.3555072,16.5529834 24.5772492,16.5529834 C21.7989913,16.5529834 19.5393212,18.8083407 19.5393212,21.5795995 Z M27.3272899,21.5795995 C27.3272899,23.0923021 26.093356,24.3227045 24.5772492,24.3227045 C23.0611425,24.3227045 21.8272086,23.0923021 21.8272086,21.5795995 C21.8272086,20.066897 23.0611425,18.8357337 24.5772492,18.8357337 C26.093356,18.8357337 27.3272899,20.066897 27.3272899,21.5795995 Z" id="Shape" fill="#0075C9"></path>
                    <path d="M38.8948487,4.45136309 C38.8948487,3.25596285 39.8687261,2.2827503 41.0675791,2.2827503 L49.5716566,2.2827503 L49.5716566,1.3516597e-15 L41.0668165,1.3516597e-15 C38.6065749,1.3516597e-15 36.6061986,1.9966456 36.6061986,4.45136309 L36.6061986,6.8482509 L38.8940861,6.8482509 L38.8940861,4.45136309 L38.8948487,4.45136309 Z" id="Path" fill="#F9AC19"></path>
                    <rect id="Rectangle" fill="#F9AC19" x="51.859544" y="0" width="6.10103311" height="2.2827503"></rect>
                    <rect id="Rectangle" fill="#F9AC19" x="50.3342858" y="3.80382292" width="15.2525828" height="2.2827503"></rect>
                    <rect id="Rectangle" fill="#F9AC19" x="42.7079944" y="3.80534475" width="5.33840397" height="2.2827503"></rect>
                </g>
            </g>
        </g>
    </g>
</svg>