<?xml version="1.0" encoding="UTF-8"?>
<svg width="75px" height="75px" viewBox="0 0 59 59" version="1.1" xmlns="http://www.w3.org/2000/svg" xmlns:xlink="http://www.w3.org/1999/xlink">
    <title>3A3DADAF-8B73-4F95-A6E7-AD3447DF9176</title>
    <defs>
        <polygon id="path-1" points="0 0 59 0 59 34 0 34"></polygon>
        <polygon id="path-3" points="0 -6.42215585e-15 23 -6.42215585e-15 23 14 0 14"></polygon>
        <polygon id="path-5" points="0 6.25267603e-15 22 6.25267603e-15 22 11 0 11"></polygon>
        <polygon id="path-7" points="-6.44046071e-15 0 23 0 23 9 -6.44046071e-15 9"></polygon>
    </defs>
    <g id="Web-VenteEnligne" stroke="none" stroke-width="1" fill="none" fill-rule="evenodd">
        <g id="HP---Boutique---Rev-2" transform="translate(-1159.000000, -746.000000)">
            <g id="Group-19" transform="translate(1159.000000, 746.000000)">
                <g id="Group-3">
                    <mask id="mask-2" fill="white">
                        <use xlink:href="#path-1"></use>
                    </mask>
                    <g id="Clip-2"></g>
                    <path d="M36.7117778,10.3083393 C36.4959015,10.0943044 36.2086763,9.97617715 35.9031564,9.97617715 C35.5976366,9.97617715 35.3104113,10.0943044 35.0947637,10.3083393 C34.8786587,10.5221474 34.7597438,10.8069225 34.7597438,11.1098362 C34.7597438,11.4127499 34.8786587,11.6975251 35.0947637,11.9113332 C36.1428157,12.9504451 39.328592,16.8227978 38.6144165,24.7953685 C35.9324278,23.6009453 33.0256442,22.994211 29.9555813,22.994211 C25.8109392,22.994211 22.3484571,24.0809366 20.4083146,24.8547723 C19.9626123,18.627583 22.3710967,13.4327037 23.9053278,11.9113332 C24.1212041,11.6975251 24.2403477,11.4127499 24.2403477,11.1098362 C24.2403477,10.8069225 24.1212041,10.5221474 23.9055564,10.3083393 C23.6896801,10.0943044 23.4024549,9.97617715 23.096935,9.97617715 C22.7914152,9.97617715 22.5041899,10.0943044 22.2885423,10.3083393 C20.2564694,12.3230782 17.7537678,18.0478297 18.1018226,24.6187445 C15.5844854,23.5406347 12.9697294,22.9930773 10.3080935,22.9930773 C6.9501193,22.9930773 4.1967817,23.8489899 2.38332928,24.6303078 C3.56173033,13.0767347 15.3832448,4.08114998 29.5000457,4.08114998 C43.6355987,4.08114998 55.4589426,13.0885248 56.6199638,24.6591027 C54.0740412,23.5535584 51.4204092,22.9935308 48.7267577,22.9935308 C45.3893649,22.9935308 42.6518064,23.8485365 40.9218231,24.5790664 C41.3478587,18.633478 39.8298641,13.3998276 36.7117778,10.3083393 M0.592516423,27.5202315 C0.761055443,27.6120579 0.951547987,27.6605785 1.14386999,27.6605785 C1.36088971,27.6605785 1.57242104,27.6000411 1.75628179,27.4848613 C1.90058047,27.3939419 5.35665947,25.2617559 10.2927718,25.2617559 C13.2503229,25.2617559 16.141556,26.0217609 18.8864324,27.5206849 C18.9326263,27.5458522 18.9806496,27.567165 19.0295876,27.5855302 C19.0357621,27.5880243 19.0423939,27.5896114 19.048797,27.5918787 C19.0984211,27.6095638 19.1491886,27.6233945 19.2010995,27.6345043 C19.2193941,27.6383588 19.2376887,27.6419865 19.2564407,27.644934 C19.3104098,27.6535498 19.3650649,27.6589914 19.4199487,27.6598983 C19.4256658,27.6598983 19.4311542,27.6614854 19.4368712,27.6614854 C19.4480767,27.6614854 19.4597395,27.6592181 19.4707162,27.6589914 C19.5093636,27.6580844 19.5480109,27.6558171 19.5862009,27.650829 C19.5912319,27.6501488 19.5960343,27.6503755 19.6010653,27.6496953 C19.6099839,27.6485617 19.6182165,27.644934 19.6271351,27.6433469 C19.6831623,27.6340509 19.7382748,27.6206737 19.7924725,27.6032153 C19.8052788,27.5991342 19.818771,27.5959599 19.8318059,27.5911985 C19.8779998,27.5744204 19.923279,27.5551482 19.9664999,27.5327017 C20.0058333,27.5125226 23.5684784,25.7188472 28.3566331,25.3578902 L28.3566331,32.8663409 C28.3566331,33.4914405 28.869568,34 29.5000457,34 C30.1305235,34 30.6434584,33.4914405 30.6434584,32.8663409 L30.6434584,25.3043815 C33.6700716,25.3957544 36.4821806,26.1398882 39.0107233,27.5209117 C39.059204,27.5472126 39.1097428,27.5689788 39.1616537,27.5880243 C39.1781189,27.5941461 39.1952701,27.5989074 39.2124213,27.604349 C39.2645609,27.6209004 39.3176152,27.6340509 39.371813,27.6428934 C39.3809603,27.6447072 39.3894215,27.648335 39.3985688,27.6494686 C39.4029138,27.6501488 39.4068014,27.6499221 39.4109177,27.6503755 C39.4417898,27.6544567 39.4731193,27.6558171 39.5046775,27.6574042 C39.5241155,27.6580844 39.5440109,27.6614854 39.5632203,27.6614854 C39.5751117,27.6614854 39.5860885,27.6585379 39.59798,27.6583112 C39.6478328,27.656724 39.6972282,27.6526429 39.7461663,27.6447072 C39.7690345,27.6408528 39.7914454,27.6354112 39.814085,27.6301964 C39.8547905,27.6211271 39.8948099,27.610244 39.934372,27.5966401 C39.9528953,27.5902916 39.9711899,27.5837164 39.9892558,27.576461 C40.0393373,27.5565086 40.0875893,27.5331552 40.1344692,27.5066276 C40.1397289,27.5032266 40.1456746,27.5007325 40.1509343,27.4975583 C40.1587095,27.4927969 40.1669421,27.4896227 40.174946,27.4848613 C40.3192447,27.3939419 43.7753237,25.2617559 48.711436,25.2617559 C51.6689871,25.2617559 54.5602202,26.0217609 57.3050966,27.5206849 C57.4736356,27.6125113 57.6643568,27.6612587 57.8566788,27.6612587 C58.0613497,27.6612587 58.2625903,27.606843 58.4384472,27.5036801 C58.7846725,27.3005284 59.0000915,26.9266476 59.0000915,26.5275996 C59.0000915,13.2213896 46.3816184,2.33939619 30.6434584,1.8342377 L30.6434584,1.1336364 C30.6434584,0.508536786 30.1305235,-2.26731814e-05 29.5000457,-2.26731814e-05 C28.869568,-2.26731814e-05 28.3566331,0.508536786 28.3566331,1.1336364 L28.3566331,1.8342377 C12.6184731,2.33939619 0,13.2213896 0,26.5275996 C0,26.9400248 0.226853065,27.3204808 0.592516423,27.5202315" id="Fill-1" fill="#0075C9" mask="url(#mask-2)"></path>
                </g>
                <g id="Group-6" transform="translate(0.000000, 45.000000)">
                    <mask id="mask-4" fill="white">
                        <use xlink:href="#path-3"></use>
                    </mask>
                    <g id="Clip-5"></g>
                    <path d="M21.5159499,3.1053617 C21.6313989,3.14422673 21.7513576,3.16365925 21.8722183,3.16365925 C22.3583668,3.16365925 22.7883692,2.85319087 22.9421509,2.39087769 C23.1385495,1.79999354 22.8185844,1.15894638 22.2289377,0.961909681 L19.5231018,0.0580715969 C19.4094567,0.0198844378 19.2906254,0.000677878563 19.1699902,0.000677878563 C18.8746031,0.000677878563 18.5844023,0.119306627 18.373798,0.326285548 C18.3586904,0.341198877 16.8278638,1.80767617 14.6568815,1.80767617 C12.4949186,1.80767617 10.9568764,0.343006553 10.9442492,0.331030698 C10.7316156,0.117498951 10.4484048,-6.42215585e-15 10.1471551,-6.42215585e-15 C10.0551566,-6.42215585e-15 9.96315823,0.011297976 9.87386564,0.0336679686 L8.30245147,0.427063495 C4.44505696,1.39371833 1.49231357,4.55105071 0.780678743,8.47122244 L0.0185349757,12.6677427 C-0.0353562553,12.9646535 0.0291328328,13.2647277 0.200727924,13.5130572 C0.371872042,13.7609348 0.629602908,13.927693 0.926117421,13.9816973 C0.993086858,13.9938991 1.06140921,14 1.12882962,14 C1.67337909,14 2.13923383,13.6097679 2.23686941,13.0719842 L2.99901318,8.87546402 C3.55280758,5.82681817 5.84916028,3.37109009 8.8492558,2.61932277 L9.85875806,2.36647406 C10.7162825,3.03305465 12.4101358,4.06727138 14.6568815,4.06727138 C16.8716082,4.06727138 18.5521577,3.05700636 19.4092312,2.40172375 L21.5159499,3.1053617 Z" id="Fill-4" fill="#0075C9" mask="url(#mask-4)"></path>
                </g>
                <path d="M18.5569005,38.4321543 C18.3799086,40.1758036 18.3200866,40.7631167 16.5749055,41.9314205 C16.0592225,42.276673 15.9191132,42.9793713 16.2632018,43.4971371 C16.4719038,43.8119063 16.8220645,43.9997742 17.1996624,43.9997742 C17.422083,43.9997742 17.6375319,43.9340656 17.8223952,43.8100998 C20.4498373,42.0513218 20.601866,40.5553781 20.7943757,38.66157 L20.7972993,38.634022 C20.8231622,38.3779616 20.8508242,38.1056435 20.8865824,37.813003 C21.0615503,36.3814132 21.1332916,34.7147627 20.3425627,33.2050451 C19.6672045,31.9152594 18.4446782,30.9165336 16.8996531,30.3928969 C16.1417587,30.1361591 15.3116732,30.0002258 14.4998042,30 C13.68816,30.0002258 12.8582994,30.1361591 12.1001801,30.3928969 C10.55538,30.9165336 9.33262871,31.9152594 8.65749549,33.2050451 C7.86676652,34.7147627 7.93850785,36.3814132 8.11325086,37.813003 C8.14923398,38.1056435 8.176896,38.3779616 8.20275886,38.634022 L8.20568249,38.6617958 C8.39819216,40.5553781 8.55022083,42.0513218 11.1774381,43.8100998 C11.3627511,43.9342914 11.5782,44 11.8003958,44 C12.1777687,44 12.5277045,43.8119063 12.7368564,43.4971371 C13.08072,42.9793713 12.9408357,42.276673 12.4249277,41.9314205 C10.6799715,40.7631167 10.6201496,40.1758036 10.4431576,38.4321543 C10.4148209,38.1544169 10.3844602,37.857712 10.3455534,37.538201 C10.2130906,36.4536701 10.1453973,35.2155933 10.6480365,34.2557056 C11.0535212,33.4816535 11.8244595,32.8697279 12.8193927,32.5323785 C13.3384491,32.3569297 13.9195764,32.263899 14.500254,32.263899 C15.0809315,32.263899 15.6620588,32.3569297 16.1804406,32.5323785 C17.1753738,32.8697279 17.9465369,33.4816535 18.3522465,34.2557056 C18.8546608,35.2155933 18.7867427,36.4536701 18.6545047,37.5384268 C18.615598,37.857712 18.5852372,38.1544169 18.5569005,38.4321543" id="Fill-7" fill="#0075C9"></path>
                <g id="Group-11" transform="translate(37.000000, 48.000000)">
                    <mask id="mask-6" fill="white">
                        <use xlink:href="#path-5"></use>
                    </mask>
                    <g id="Clip-10"></g>
                    <path d="M21.4285397,7.52365962 C20.5555002,4.10227436 17.8636473,1.374758 14.4031424,0.405673509 L13.1037975,0.0420193277 C13.0047977,0.0145197677 12.902206,0.00065998944 12.7989409,0.00065998944 C12.5048597,0.00065998944 12.2161663,0.116158141 12.0067176,0.317674917 C11.9916768,0.332194685 10.467618,1.75997184 8.30623356,1.75997184 C6.15337977,1.75997184 4.62258624,0.333954657 4.61001483,0.322294843 C4.39832128,0.11439817 4.11636253,6.25267603e-15 3.81622014,6.25267603e-15 C3.69544482,6.25267603e-15 3.57624093,0.0189196973 3.46152682,0.0565390954 L0.767653461,0.936525016 C0.180613558,1.12836195 -0.137936966,1.75249196 0.0575933415,2.32778276 C0.210470654,2.77789555 0.638796518,3.08017072 1.12324474,3.08017072 C1.24357109,3.08017072 1.36277498,3.06103102 1.47748909,3.02341163 L3.57489399,2.33834259 C4.42817837,2.97655238 6.10129822,3.95993664 8.30623356,3.95993664 C10.5293526,3.95993664 12.210105,2.96313259 13.0636139,2.3189829 L13.7866944,2.52115966 C16.4778739,3.2748676 18.5714625,5.39607366 19.2507675,8.05715109 L19.7886443,10.1664773 C19.9136849,10.6572895 20.3613168,11.000044 20.8769691,11.000044 C20.9683363,11.000044 21.059928,10.9888242 21.1497238,10.9668245 C21.750233,10.8196469 22.1163753,10.2214765 21.9664164,9.63320587 L21.4285397,7.52365962 Z" id="Fill-9" fill="#0075C9" mask="url(#mask-6)"></path>
                </g>
                <path d="M47.5749055,44.9302855 C47.0592225,45.2757274 46.9191132,45.9788113 47.2632018,46.4968612 C47.4719038,46.8118031 47.8218396,46.9997741 48.1996624,46.9997741 C48.422083,46.9997741 48.6375319,46.9340294 48.8223952,46.8099956 C51.4498373,45.0502526 51.601866,43.5534881 51.7943757,41.6586409 L51.7972993,41.6308519 C51.8231622,41.374651 51.8508242,41.1024093 51.8865824,40.8096083 C52.0615503,39.377233 52.1332916,37.709668 51.3425627,36.1991221 C50.6672045,34.9086288 49.4446782,33.909355 47.8996531,33.385431 C47.1559271,33.1332968 46.3262914,33 45.500254,33 C44.6744415,33 43.8445808,33.1332968 43.1001801,33.385431 C41.55538,33.909355 40.3326287,34.9086288 39.6574955,36.1991221 C38.8667665,37.709668 38.9385079,39.377233 39.1132509,40.8096083 C39.149234,41.1024093 39.176896,41.374651 39.2027589,41.6308519 L39.2056825,41.6588668 C39.3981922,43.5534881 39.5502208,45.0502526 42.1774381,46.8099956 C42.3632009,46.9342553 42.5786498,47 42.8006207,47 C43.1779936,47 43.5279294,46.8118031 43.7368564,46.4968612 C44.08072,45.9788113 43.9408357,45.2757274 43.4249277,44.9302855 C41.6799715,43.7613407 41.6201496,43.1737054 41.4431576,41.4290994 C41.4148209,41.1512095 41.3844602,40.8543418 41.3455534,40.5346555 C41.2130906,39.4495296 41.1453973,38.2107735 41.6480365,37.2503591 C42.0535212,36.4758823 42.8244595,35.863621 43.8193927,35.5260865 C44.3384491,35.3505414 44.9195764,35.2574596 45.500254,35.2574596 C46.0809315,35.2574596 46.6620588,35.3505414 47.1804406,35.5260865 C48.1753738,35.863621 48.9467618,36.4758823 49.3522465,37.2503591 C49.8546608,38.2107735 49.7867427,39.4495296 49.6545047,40.5348815 C49.615598,40.8543418 49.5852372,41.1512095 49.5569005,41.4290994 C49.3799086,43.1737054 49.3200866,43.7613407 47.5749055,44.9302855 Z" id="Fill-12" fill="#0075C9"></path>
                <g id="Group-16" transform="translate(18.000000, 50.000000)">
                    <mask id="mask-8" fill="white">
                        <use xlink:href="#path-7"></use>
                    </mask>
                    <g id="Clip-15"></g>
                    <path d="M21.9024765,5.1895613 C20.9879045,3.22879195 19.4168619,1.70285441 17.4791748,0.892636753 L15.5462464,0.0845506291 C15.4136833,0.0293677255 15.2734157,0.00142101898 15.1288427,0.00142101898 C14.9124363,0.00142101898 14.7014683,0.0646563634 14.5185993,0.184258794 C14.5068159,0.191837562 13.3182802,0.947345984 11.5000132,0.947345984 C9.68899746,0.947345984 8.49660949,0.194205927 8.48913157,0.189469197 C8.30558269,0.0653668729 8.09325514,0 7.8743561,0 C7.72955642,0 7.58792919,0.0284203795 7.45355328,0.0845506291 L5.52062486,0.892636753 C3.58248456,1.70285441 2.01166864,3.22902879 1.09732325,5.18979814 L0.115223394,7.2966956 C-0.0175662957,7.58137307 -0.0361477881,7.90252336 0.0624247631,8.20141102 C0.160997314,8.50029868 0.365167127,8.74139823 0.637091407,8.87994758 C0.793447867,8.95976148 0.960001488,9.00002368 1.13290001,9.00002368 C1.56322018,9.00002368 1.96340208,8.73855619 2.15216285,8.33427629 L3.1342627,6.22737883 C3.80161021,4.79664955 4.94799765,3.68304435 6.3620039,3.09190045 L7.81022729,2.48630953 C8.4845995,2.81598594 9.78983604,3.31571094 11.5000132,3.31571094 C13.2101903,3.31571094 14.5152002,2.81598594 15.189799,2.48630953 L16.6380224,3.09190045 C18.0518021,3.68280751 19.1979629,4.79641272 19.865537,6.22737883 L20.8478635,8.33403946 C21.0363976,8.73855619 21.4363529,9.00002368 21.8671263,9.00002368 C22.0400248,9.00002368 22.2070317,8.95952464 22.3627083,8.88018442 C22.6346326,8.74139823 22.839029,8.50029868 22.9373749,8.20141102 C23.0361741,7.90252336 23.0175926,7.58137307 22.8850295,7.2966956 L21.9024765,5.1895613 Z" id="Fill-14" fill="#F9AC19" mask="url(#mask-8)"></path>
                </g>
                <path d="M32.6003111,44.1615191 C32.4556804,45.6044383 32.4171122,45.9922215 31.0761953,46.9041409 C30.5618034,47.2541752 30.4223301,47.9659117 30.7651833,48.4905056 C30.9734963,48.8094258 31.322628,48.9997712 31.698892,48.9997712 C31.9208832,48.9997712 32.135699,48.9331961 32.3200191,48.8078243 C34.5403802,47.2974148 34.6686418,46.0160146 34.8309869,44.3937314 C34.8527376,44.1766186 34.8758336,43.9448639 34.9058809,43.6952642 C35.0523055,42.4788378 35.1110547,41.0597117 34.4405962,39.7581789 C33.8658855,38.6428735 32.8285809,37.7803706 31.5199536,37.3299016 C30.8934449,37.1139327 30.194733,37 29.499833,37 C28.8047089,37 28.1064455,37.1139327 27.4797125,37.3299016 C26.1713095,37.7803706 25.1342291,38.6428735 24.5595183,39.7584077 C23.8888356,41.059483 23.9478091,42.4788378 24.0940094,43.695493 C24.1240567,43.9448639 24.147377,44.1766186 24.1689034,44.3937314 C24.3314728,46.0160146 24.4595102,47.2974148 26.6800955,48.8078243 C26.864864,48.9334248 27.0796798,49 27.3012226,49 C27.6777108,49 28.0268425,48.8094258 28.2347071,48.4905056 C28.5777845,47.9659117 28.4380869,47.2541752 27.9239193,46.9041409 C26.5830024,45.9922215 26.54421,45.6044383 26.3995793,44.1601464 C26.3764832,43.9288492 26.3518175,43.6822237 26.3197521,43.4168383 C26.215932,42.5513612 26.161219,41.5660032 26.54421,40.822695 C26.8496161,40.2301533 27.4364355,39.7595516 28.1965874,39.497369 C28.5988624,39.3591855 29.049572,39.2859757 29.5000573,39.2859757 C29.9505426,39.2859757 30.4010279,39.3591855 30.8028545,39.497369 C31.5634549,39.7595516 32.1504984,40.2299245 32.4556804,40.8229238 C32.8386714,41.5660032 32.7839584,42.5511325 32.6801382,43.4166095 C32.648297,43.6822237 32.6236313,43.9288492 32.6003111,44.1615191" id="Fill-17" fill="#F9AC19"></path>
            </g>
        </g>
    </g>
</svg>