<?xml version="1.0" encoding="UTF-8"?>
<svg width="75px" height="75px" viewBox="0 0 43 55" version="1.1" xmlns="http://www.w3.org/2000/svg" xmlns:xlink="http://www.w3.org/1999/xlink">
    <title>C82917C1-B1AE-4E08-8964-D466D277B63E</title>
    <g id="Web-VenteEnligne" stroke="none" stroke-width="1" fill="none" fill-rule="evenodd">
        <g id="HP---Boutique---Rev-2" transform="translate(-698.000000, -751.000000)" fill-rule="nonzero">
            <g id="1-copy-3" transform="translate(620.000000, 719.000000)">
                <g id="Health-global" transform="translate(78.000000, 32.000000)">
                    <path d="M43,34.0899351 C43,29.701403 41.5843621,25.5710198 39.0185185,21.9569345 C39.5493827,21.354587 39.9917695,20.4080408 40.0802469,19.0312465 C40.0802469,18.6870479 40.6995885,9.82393394 40.2572016,5.86565006 C40.0802469,3.54230952 38.7530864,1.90736617 36.5411523,1.21896898 C36.0987654,1.04686968 35.1255144,0.788720728 34.3292181,1.30501863 C33.7983539,1.64921722 33.7098765,2.33761442 34.063786,2.76786267 C34.4176955,3.19811092 34.9485597,3.28416057 35.4794239,3.11206127 C35.5679012,3.11206127 35.6563786,3.11206127 35.8333333,3.19811092 C37.2489712,3.62835917 37.9567901,4.57490531 38.1337449,5.95169971 C38.5761317,9.73788429 37.9567901,18.6870479 37.8683128,18.7730975 C37.7798354,19.8056933 37.5144033,20.4940905 36.8950617,20.7522394 L36.5411523,21.0103884 C36.0102881,21.1824877 35.3024691,21.0103884 34.4176955,20.3219912 C34.3292181,20.2359415 27.2510288,14.6427143 24.6851852,11.7170262 C23.7119342,10.6844304 23.5349794,9.47973534 24.154321,8.1889906 C24.2427984,8.0168913 24.3312757,7.93084165 24.3312757,7.844792 C24.8621399,7.6726927 25.127572,7.1563948 25.0390947,6.6400969 C24.9506173,6.03774936 24.3312757,5.69355076 23.7119342,5.77960041 C22.7386831,5.95169971 22.2962963,6.89824585 22.1193416,7.24244445 C21.1460905,9.30763604 21.4115226,11.3728276 23.0041152,13.0938206 C25.7469136,16.1055584 32.7366255,21.6987856 33.090535,21.9569345 C34.3292181,22.9034807 35.3024691,23.2476793 36.1872428,23.2476793 C36.5411523,23.2476793 36.8950617,23.1616296 37.1604938,23.07558 C38.3958137,24.6928817 39.3249646,26.4838814 39.9342454,28.3819537 C40.4595667,30.0184698 40.7471008,31.7345823 40.7880658,33.4875876 L31.1440329,33.4875876 C30.9670782,31.1642471 30.6131687,29.0130058 29.9938272,27.0338639 C30.0823045,26.9478142 30.1707819,26.9478142 30.3477366,26.8617646 C30.7901235,26.6896653 31.2325103,26.4315163 31.5864198,26.259417 C32.117284,26.0012681 32.2942387,25.3128709 32.0288066,24.796573 C31.7633745,24.2802751 31.0555556,24.1081758 30.5246914,24.3663247 C30.1707819,24.538424 29.8168724,24.7105233 29.3744856,24.8826226 C29.3744856,24.8826226 29.2860082,24.8826226 29.2860082,24.9686723 C27.5164609,20.4940905 24.7736626,17.6544521 21.5884774,17.6544521 C18.1378601,17.6544521 15.218107,20.9243387 13.537037,26.0873177 C12.8292181,28.238559 12.2983539,30.7339988 12.1213992,33.4015379 L2.21193416,33.4015379 C2.38888889,29.2711548 3.89300412,25.3989205 6.5473251,22.2150835 C6.98971193,22.4732324 7.43209877,22.6453317 7.96296296,22.817431 C8.40534979,22.9034807 8.93621399,22.9895303 9.37860082,22.9895303 C10.2633745,22.9895303 11.2366255,22.7313814 12.0329218,22.3011331 C13.2716049,21.6127359 14.1563786,20.4940905 14.5102881,19.1172961 C14.8641975,17.7405017 14.6872428,16.3637073 13.9794239,15.1590122 C13.2716049,13.9543171 12.1213992,13.0938206 10.7057613,12.749622 C9.29012346,12.4054234 7.8744856,12.5775227 6.63580247,13.2659199 C5.39711934,13.9543171 4.51234568,15.0729626 4.15843621,16.449757 C3.80452675,17.8265514 3.98148148,19.2033458 4.68930041,20.4080408 C4.77777778,20.4940905 4.86625514,20.6661898 4.95473251,20.7522394 C1.76954733,24.538424 0,29.1851051 0,34.0899351 C0,34.2620344 0,34.5201834 0,34.606233 C0.0884773663,39.6831624 2.21193416,44.5879924 5.75102881,48.374177 C9.82098765,52.5906098 15.5720165,55 21.5,55 C21.5,55 21.5884774,55 21.5884774,55 C21.5884774,55 21.5884774,55 21.6769547,55 C27.5164609,54.9139504 33.1790123,52.5045602 37.2489712,48.374177 C40.8765432,44.5879924 42.9115226,39.769212 43,34.6922827 C43,34.4341337 43,34.2620344 43,34.0899351 Z M22.5617284,42.1786022 C24.5082305,42.2646519 26.4547325,42.6949001 28.2242798,43.3832973 C27.0740741,48.4602266 24.8621399,51.816163 22.5617284,52.5906098 L22.5617284,42.1786022 Z M20.3497942,52.5906098 C18.1378601,51.6440637 15.9259259,48.2881273 14.8641975,43.3832973 C16.6337449,42.7809498 18.4032922,42.3507015 20.3497942,42.2646519 L20.3497942,52.5906098 Z M20.3497942,40.027361 C18.3148148,40.1134106 16.3683128,40.5436589 14.5102881,41.1460064 C14.3333333,39.5971127 14.1563786,38.048219 14.1563786,36.327226 C14.1563786,36.0690771 14.1563786,35.8109281 14.1563786,35.5527792 L20.3497942,35.5527792 L20.3497942,40.027361 L20.3497942,40.027361 Z M16.5452675,52.1603616 C13.4485597,51.3859147 10.5288066,49.837021 8.1399177,47.5997301 C9.55555556,46.2229357 11.1481481,45.1042903 12.9176955,44.2437938 C13.7139918,47.5136805 14.9526749,50.2672693 16.5452675,52.1603616 Z M30.3477366,44.3298434 C32.0288066,45.1903399 33.5329218,46.3089854 34.8600823,47.5997301 C32.5596708,49.7509714 29.8168724,51.2998651 26.808642,52.0743119 C28.3127572,50.2672693 29.5514403,47.5136805 30.3477366,44.3298434 Z M29.0205761,36.327226 C29.0205761,38.048219 28.9320988,39.769212 28.6666667,41.2320561 C26.7201646,40.5436589 24.6851852,40.1134106 22.5617284,40.027361 L22.5617284,35.5527792 L28.9320988,35.5527792 C29.0205761,35.8109281 29.0205761,36.0690771 29.0205761,36.327226 Z M22.5617284,33.4015379 L22.5617284,28.6688072 C24.4197531,28.5827576 26.1893004,28.238559 27.8703704,27.7222611 C28.3127572,29.4432541 28.6666667,31.3363463 28.8436214,33.4015379 L22.5617284,33.4015379 Z M27.2510288,25.6570695 C25.7469136,26.0873177 24.154321,26.4315163 22.6502058,26.517566 L22.6502058,19.9777926 C24.3312757,20.5801401 26.0123457,22.5592821 27.2510288,25.6570695 Z M20.3497942,20.0638422 L20.3497942,26.517566 C18.845679,26.4315163 17.3415638,26.1733674 15.9259259,25.7431191 C17.1646091,22.7313814 18.7572016,20.7522394 20.3497942,20.0638422 Z M15.3065844,27.8083107 C16.9876543,28.3246086 18.6687243,28.5827576 20.3497942,28.6688072 L20.3497942,33.4015379 L14.3333333,33.4015379 C14.5102881,31.3363463 14.8641975,29.4432541 15.3065844,27.8083107 Z M2.30041152,35.5527792 L12.0329218,35.5527792 C12.0329218,35.8109281 12.0329218,36.0690771 12.0329218,36.327226 C12.0329218,38.306368 12.2098765,40.1994603 12.4753086,42.0065029 C10.3518519,43.0390987 8.40534979,44.3298434 6.63580247,45.9647868 C4.15843621,43.0390987 2.65432099,39.4250134 2.30041152,35.5527792 Z M36.3641975,46.0508364 C34.6831276,44.4158931 32.8251029,43.1251484 30.7901235,42.1786022 C31.0555556,40.3715596 31.2325103,38.3924176 31.2325103,36.327226 C31.2325103,36.0690771 31.2325103,35.8109281 31.2325103,35.5527792 L40.6995885,35.5527792 C40.4341564,39.4250134 38.8415638,43.0390987 36.3641975,46.0508364 Z M6.281893,17.0521045 C6.45884774,16.2776577 6.98971193,15.5892605 7.69753086,15.2450619 C8.1399177,14.9869129 8.67078189,14.8148136 9.29012346,14.8148136 C9.55555556,14.8148136 9.82098765,14.8148136 10.0864198,14.9008633 C10.882716,15.0729626 11.590535,15.5892605 11.9444444,16.2776577 C12.3868313,16.9660549 12.4753086,17.8265514 12.2098765,18.6009982 C11.9444444,19.3754451 11.5020576,20.0638422 10.7942387,20.4080408 C10.0864198,20.8382891 9.20164609,20.9243387 8.40534979,20.6661898 C7.6090535,20.4940905 6.90123457,19.9777926 6.5473251,19.2893954 C6.19341564,18.6009982 6.10493827,17.8265514 6.281893,17.0521045 Z" id="SI" fill="#0075C9"></path>
                    <circle id="Oval" fill="#F9AC19" cx="25" cy="6" r="2"></circle>
                    <circle id="Oval-Copy" fill="#F9AC19" cx="34" cy="2" r="2"></circle>
                    <circle id="Oval-Copy-2" fill="#F9AC19" cx="9.5" cy="17.5" r="5.5"></circle>
                </g>
            </g>
        </g>
    </g>
</svg>