<?xml version="1.0" encoding="UTF-8"?>
<svg width="75px" height="75px" viewBox="0 0 58 58" version="1.1" xmlns="http://www.w3.org/2000/svg" xmlns:xlink="http://www.w3.org/1999/xlink">
    <title>3A4AD398-97FB-45EC-A1F5-51D9D1ECC148</title>
    <g id="Web-VenteEnligne" stroke="none" stroke-width="1" fill="none" fill-rule="evenodd">
        <g id="HP---Boutique---Rev-2" transform="translate(-927.000000, -750.000000)" fill-rule="nonzero">
            <g id="1-copy-4" transform="translate(856.000000, 719.000000)">
                <g id="Auto-main-icon" transform="translate(71.000000, 31.000000)">
                    <rect id="Rectangle-5" fill="#FF0000" opacity="0" x="0" y="0" width="58" height="58"></rect>
                    <g id="Health" transform="translate(3.800000, 3.800000)">
                        <path d="M42.2822458,33.7073011 C40.5718858,33.7073011 38.9856808,34.2369155 37.6755966,35.135685 C34.7157401,32.383265 31.6039178,30.2697293 28.4841495,28.3963905 C33.0302111,25.8575882 37.6716237,23.1789992 41.5383087,19.3466776 C43.6986067,17.2075472 44.8885088,14.3616079 44.8885088,11.3335521 C44.8885088,8.30549631 43.6986067,5.45955701 41.539302,3.32042658 C39.379004,1.17932732 36.5085391,0 33.4533315,0 C30.4477859,0 27.6190371,1.14191961 25.4736377,3.21706317 C23.3262519,1.14191961 20.4994896,0 17.4949372,0 C14.4407229,0 11.5682715,1.17932732 9.40797351,3.32042658 C7.24866878,5.45955701 6.05876673,8.30549631 6.05876673,11.3335521 C6.05876673,14.3616079 7.24866878,17.2075472 9.40797351,19.3466776 C13.2855842,23.1898277 17.7263623,25.6863002 22.4293558,28.3304348 L22.504842,28.373749 C19.6562284,30.0364233 16.9029659,31.8546349 14.5042902,34.0134537 C13.0869361,33.0172272 11.4033936,32.4748154 9.63244585,32.4748154 C7.37381708,32.4748154 5.250269,33.3470057 3.6541316,34.9299426 L0.435039316,38.1184578 C0.15593875,38.3950779 0,38.7711239 0,39.1629204 C0,39.554717 0.156931991,39.9297785 0.435039316,40.2073831 C0.436032556,40.2073831 0.436032556,40.2073831 0.437025797,40.2083675 L2.40761484,42.159475 C2.99164023,42.7353568 3.93422541,42.7353568 4.51427783,42.1584906 C5.09631673,41.5816243 5.09631673,40.6474159 4.51427783,40.0705496 L4.51427783,40.0705496 L3.59652366,39.1629204 L5.76178783,37.0168991 C6.79575114,35.9921247 8.16940268,35.4280558 9.63145261,35.4280558 C11.0925093,35.4280558 12.4671541,35.9921247 13.5011174,37.0178835 C15.6355911,39.1324036 15.6345979,42.5758819 13.5011174,44.6923708 L11.3378397,46.8354389 L10.422072,45.9278097 L10.422072,45.9268253 C9.84003311,45.3509434 8.89744792,45.349959 8.31540902,45.9268253 C7.73337012,46.5036916 7.73337012,47.4378999 8.31540902,48.0147662 L10.2840116,49.9678425 C10.5631122,50.2444627 10.9415368,50.4 11.3378397,50.4 C11.7341426,50.4 12.111574,50.2444627 12.3916678,49.9678425 L15.6077804,46.7803117 C18.5368465,43.8753076 18.8566699,39.3568499 16.5801628,36.0945037 C19.1606015,33.7890074 22.2247482,31.9205906 25.4915161,30.0718622 C28.9301145,32.0662838 32.3736791,34.2772765 35.5689336,37.2334701 C34.6809767,38.5230517 34.1605187,40.0803938 34.1605187,41.7548811 C34.1605187,46.1916325 37.8037247,49.8014766 42.2802593,49.8014766 C46.756794,49.8014766 50.4,46.1916325 50.4,41.7548811 C50.4,37.3181296 46.7587805,33.7073011 42.2822458,33.7073011 Z M25.5084012,26.6677605 C24.9710581,26.3625923 24.4347082,26.0623462 23.9013381,25.7611157 C19.3781211,23.2193601 15.1071872,20.8183757 11.5156297,17.2577523 C9.91949234,15.6757998 9.03948131,13.5721083 9.03948131,11.3325677 C9.03948131,9.09302707 9.91949234,6.99031993 11.516623,5.4073831 C13.1127604,3.82444627 15.2363085,2.95225595 17.4959305,2.95225595 C19.7555525,2.95225595 21.8771141,3.82444627 23.475238,5.4073831 C23.7374534,5.66825267 23.9927162,5.96652994 24.280756,6.34946678 C24.561843,6.7245283 25.0048283,6.9440525 25.4756242,6.9440525 L25.4776107,6.9440525 C25.9493999,6.94306809 26.3933784,6.72157506 26.6734722,6.34651354 C26.9585322,5.96456112 27.2128018,5.66825267 27.4760105,5.4073831 C29.0741344,3.82444627 31.1976824,2.95225595 33.4563112,2.95225595 C35.71494,2.95225595 37.8374948,3.82444627 39.4346255,5.4073831 C41.0317561,6.98933552 41.9117671,9.09302707 41.9117671,11.3325677 C41.9117671,13.5721083 41.0317561,15.6748154 39.4346255,17.2577523 C35.6334943,21.026087 30.8540212,23.6889253 26.2334667,26.2631665 C25.9901228,26.3990156 25.7497586,26.5328958 25.5084012,26.6677605 Z M42.2822458,46.8462674 C39.4485308,46.8462674 37.1422265,44.5614438 37.1422265,41.7529122 C37.1422265,38.9443806 39.4485308,36.659557 42.2822458,36.659557 C45.1159608,36.659557 47.4222651,38.9443806 47.4222651,41.7529122 C47.4222651,44.5614438 45.1159608,46.8462674 42.2822458,46.8462674 Z" id="Shape-Copy" fill="#0075C9"></path>
                        <path d="M42.4018727,39.8714862 C41.2887191,39.8714862 40.3855946,40.7646021 40.3855946,41.8688543 C40.3855946,42.9711239 41.287719,43.8652311 42.4018727,43.8652311 C43.5130259,43.8652311 44.4161505,42.9721151 44.4161505,41.8688543 C44.4161505,40.7646021 43.5140261,39.8714862 42.4018727,39.8714862 Z" id="Path" fill="#FCB718"></path>
                        <path d="M26.019942,22 C25.6930143,21.8198497 25.3666908,21.6426051 25.0421803,21.4647794 C22.2901861,19.964302 19.6916848,18.5469262 17.5065265,16.4449795 C16.5354121,15.5111037 16,14.2692292 16,12.9471587 C16,11.6250882 16.5354121,10.3837948 17.5071308,9.44933793 C18.4782451,8.51488108 19.7702441,8 21.1450326,8 C22.5198211,8 23.8106116,8.51488108 24.7829345,9.44933793 C24.9424704,9.60333735 25.0977762,9.7794197 25.2730239,10.0054792 C25.4440416,10.2268897 25.7135606,10.3564817 26,10.3564817 L26.0012086,10.3564817 C26.2882524,10.3559005 26.5583756,10.2251463 26.728789,10.0037358 C26.9022238,9.77825744 27.0569253,9.60333735 27.2170655,9.44933793 C28.1893884,8.51488108 29.4813875,8 30.8555717,8 C32.2297559,8 33.5211506,8.51488108 34.4928692,9.44933793 C35.4645879,10.3832136 36,11.6250882 36,12.9471587 C36,14.2692292 35.4645879,15.5105226 34.4928692,16.4449795 C32.180203,18.6695446 29.2722988,20.241501 26.4610829,21.7611556 C26.3130288,21.8413515 26.1667875,21.9203852 26.019942,22 Z" id="Path" fill="#F9AC19"></path>
                    </g>
                </g>
            </g>
        </g>
    </g>
</svg>