<?xml version="1.0" encoding="UTF-8"?>
<svg width="55px" height="55px" viewBox="0 0 55 55" version="1.1" xmlns="http://www.w3.org/2000/svg" xmlns:xlink="http://www.w3.org/1999/xlink">
    <title>107D1C76-8B30-4D49-90E6-AA129769FD49</title>
    <g id="Web-VenteEnligne" stroke="none" stroke-width="1" fill="none" fill-rule="evenodd">
        <g id="HP---Boutique---Rev-2" transform="translate(-222.000000, -749.000000)" fill-rule="nonzero">
            <g id="1-copy" transform="translate(150.000000, 719.000000)">
                <g id="Auto-main-icon" transform="translate(72.000000, 30.000000)">
                    <rect id="Rectangle-5" fill="#FF0000" opacity="0" x="0" y="0" width="55" height="55"></rect>
                    <path d="M49.9909213,34.8310808 L45.9899656,32.9882454 L44.8451835,31.1101966 C49.3086774,28.2461723 52.014526,23.269343 52.014526,17.9051662 L52.014526,10.1934284 C52.0029625,9.75912957 51.76013,9.36004421 51.3785359,9.16050152 L41.0986239,3.60851982 C40.7517202,3.42071494 40.3354358,3.42071494 40.0000956,3.62025762 L30.0439602,9.16050152 C29.6739297,9.37178201 29.454224,9.75912957 29.4657875,10.1934284 L29.4657875,18.0577576 C29.454224,20.2879405 29.9051988,22.5063857 30.8071483,24.5487637 L22.4698968,24.5487637 C20.6775612,24.5487637 18.9777332,25.4056235 17.8792049,26.8493735 L13.3347668,32.894343 L5.70288609,35.0071479 C3.6908448,35.5588247 2.30323012,37.4133979 2.29166667,39.5262027 L2.29166667,42.4841296 C2.30323012,45.0781845 4.38465214,47.1792515 6.94017584,47.2027271 L7.49522171,47.2027271 C8.35091743,50.3484588 11.5655581,52.1912942 14.6645642,51.3109588 C16.6303517,50.759282 18.1682913,49.198154 18.7117737,47.2027271 L35.7100535,47.2027271 C36.5657492,50.3484588 39.7803899,52.1912942 42.879396,51.3109588 C44.8451835,50.759282 46.3831231,49.198154 46.9266055,47.2027271 L48.0598242,47.2027271 C50.6153479,47.1909893 52.6967699,45.0899223 52.7083333,42.4841296 L52.7083333,39.091904 C52.6967699,37.2490686 51.632932,35.5940381 49.9909213,34.8310808 Z M31.7784786,10.8859588 L40.6013953,5.9678186 L49.7018349,10.8976966 L49.7018349,17.9051662 C49.6902714,23.269343 46.5218846,28.0935808 41.6536697,30.1711723 C41.6536697,30.1711723 41.6421063,30.1711723 41.6305428,30.1711723 L40.5204511,30.6524223 L39.6185015,30.2415991 C34.8543578,28.1170564 31.7784786,23.3397698 31.7784786,18.0460198 L31.7784786,10.8859588 L31.7784786,10.8859588 Z M13.1034977,49.1394649 C11.1608372,49.1394649 9.59977064,47.5431235 9.59977064,45.5829101 C9.59977064,43.6109588 11.1724006,42.0263552 13.1034977,42.0263552 C15.0461583,42.0263552 16.6072248,43.6226966 16.6072248,45.5829101 C16.6072248,47.5431235 15.0345948,49.1277271 13.1034977,49.1394649 Z M41.3183295,49.1394649 C39.375669,49.1394649 37.8146024,47.5431235 37.8146024,45.5829101 C37.8146024,43.6226966 39.3872324,42.0263552 41.3183295,42.0263552 C43.2609901,42.0263552 44.8221199,43.6226966 44.8221199,45.5829101 C44.83362,47.5431235 43.2609901,49.1277271 41.3183295,49.1394649 Z M50.4072057,42.4723918 L50.3956422,42.4723918 C50.3840787,43.7752881 49.3433677,44.8316905 48.0598242,44.8434284 L47.0884939,44.8434284 C46.6722095,41.6037942 43.7582187,39.3266601 40.5667049,39.749221 C37.9533639,40.0896174 35.8835054,42.1906845 35.5481651,44.8434284 L18.8736621,44.8434284 C18.4573777,41.6037942 15.5433869,39.3266601 12.3518731,39.749221 C9.73853211,40.0896174 7.66867355,42.1906845 7.33333333,44.8434284 L6.94017584,44.8434284 C5.65663226,44.8316905 4.61592125,43.7752881 4.6043578,42.4723918 L4.6043578,39.5144649 C4.61592125,38.4580625 5.30972859,37.5425137 6.31574924,37.2608064 L14.3176606,35.0423613 C14.5604931,34.9719345 14.7801988,34.8310808 14.9420872,34.6198003 L19.7293578,28.2579101 C20.3884748,27.3893125 21.4060589,26.8845869 22.4814602,26.8845869 L32.1253823,26.8845869 C33.767393,29.3025747 36.0453937,31.2158369 38.6934251,32.4013552 L40.0810398,33.011721 C40.3701261,33.1408369 40.7054664,33.1408369 41.0061162,33.011721 L42.5671827,32.3309284 C42.6481269,32.2957149 42.7290711,32.2605015 42.7984518,32.2252881 L44.2207569,34.5376357 C44.3363914,34.7371784 44.5098433,34.8897698 44.7179855,34.9836723 L49.0427179,36.9673613 C49.8637232,37.342971 50.3956422,38.1763552 50.4072057,39.091904 L50.4072057,42.4723918 Z" id="Shape" fill="#000000"></path>
                    <path d="M46.3021789,15.3228491 C45.897458,14.8181235 45.1805237,14.7359588 44.6717317,15.1350442 L44.6601682,15.146782 L39.2484709,19.6188857 L37.2826835,17.2830625 C36.8663991,16.7900747 36.1379014,16.7196479 35.6522362,17.1422088 C35.1665711,17.5647698 35.0971904,18.3042515 35.5134748,18.7972393 L35.5250382,18.8089771 L38.2193234,22.0133979 C38.2308869,22.0368735 38.2424503,22.0486113 38.2540138,22.0603491 C38.2655772,22.0720869 38.2771407,22.0955625 38.3002676,22.1073003 C38.311831,22.1190381 38.334958,22.1425137 38.3465214,22.1542515 C38.3580849,22.1659893 38.3812118,22.1777271 38.3927752,22.1894649 C38.4043387,22.2012027 38.4274656,22.2129405 38.4505925,22.2246784 C38.4737194,22.2364162 38.4852829,22.248154 38.4968463,22.2598918 C38.5199732,22.2716296 38.5315367,22.2833674 38.5546636,22.2951052 C38.5662271,22.306843 38.589354,22.3185808 38.6009174,22.3185808 C38.6240443,22.3303186 38.6471713,22.3420564 38.6702982,22.3420564 C38.6818616,22.3537942 38.7049885,22.3537942 38.716552,22.365532 C38.7396789,22.3772698 38.7628058,22.3772698 38.7859327,22.3890076 C38.7974962,22.3890076 38.8206231,22.4007454 38.8321865,22.4007454 C38.8553135,22.4007454 38.8784404,22.4124832 38.9015673,22.4124832 C38.9131307,22.4124832 38.9362576,22.424221 38.9478211,22.424221 C38.9825115,22.424221 39.0056384,22.424221 39.0403287,22.424221 C39.0518922,22.424221 39.0634557,22.424221 39.0750191,22.424221 C39.1097095,22.424221 39.1443998,22.424221 39.1790902,22.424221 C39.1906537,22.424221 39.1906537,22.424221 39.2022171,22.424221 C39.225344,22.424221 39.2600344,22.4124832 39.2831613,22.4124832 C39.2947248,22.4124832 39.3062882,22.4124832 39.3178517,22.4007454 C39.3409786,22.4007454 39.3641055,22.3890076 39.3872324,22.3890076 C39.3987959,22.3890076 39.4103593,22.3772698 39.4219228,22.3772698 C39.4450497,22.3772698 39.4566131,22.365532 39.4797401,22.3537942 C39.4913035,22.3537942 39.502867,22.3420564 39.5259939,22.3420564 C39.5375573,22.3303186 39.5606843,22.3303186 39.5722477,22.3185808 C39.5838112,22.306843 39.6069381,22.306843 39.6185015,22.2951052 C39.630065,22.2833674 39.6531919,22.2833674 39.6647554,22.2716296 C39.6763188,22.2598918 39.6994457,22.248154 39.7110092,22.248154 C39.7225726,22.248154 39.7341361,22.2246784 39.757263,22.2246784 C39.7688265,22.2129405 39.7803899,22.2012027 39.8035168,22.1894649 C39.8150803,22.1777271 39.8266437,22.1777271 39.8382072,22.1659893 L46.1171636,16.9778796 C46.6143922,16.5670564 46.6953364,15.8393125 46.3021789,15.3228491 Z" id="Shape" fill="#000000"></path>
                </g>
            </g>
        </g>
    </g>
</svg>
