<?xml version="1.0" encoding="UTF-8"?>
<svg width="24px" height="24px" viewBox="0 0 24 24" version="1.1" xmlns="http://www.w3.org/2000/svg" xmlns:xlink="http://www.w3.org/1999/xlink">
    <title>3D0688F5-A9DD-4236-947E-17BCAAEC98F4</title>
    <defs>
        <path d="M12,22 C17.5228475,22 22,17.5228475 22,12 C22,6.4771525 17.5228475,2 12,2 C6.4771525,2 2,6.4771525 2,12 C2,17.5228475 6.4771525,22 12,22 Z M12,0 C18.627417,0 24,5.372583 24,12 C24,18.627417 18.627417,24 12,24 C5.372583,24 0,18.627417 0,12 C0,5.372583 5.372583,0 12,0 Z M16.3514038,8.55644185 L16.3351838,8.5727565 L16.3351838,8.5727565 L10.4089332,14.7137945 L7.67795364,11.9165814 C7.37602472,11.6073299 6.88056509,11.6013938 6.57131358,11.9033227 C6.56750064,11.9070453 6.56372583,11.9108068 6.55998973,11.9146066 L6.54954419,11.9252301 C6.24424025,12.2357363 6.24336116,12.7334017 6.54756623,13.0449845 L10.4089332,17 L17.4604053,9.69784131 C17.7609509,9.38661106 17.7595972,8.8928303 17.4573498,8.58325254 L17.4439539,8.56953175 C17.1458692,8.26421771 16.6567179,8.25835717 16.3514038,8.55644185 Z" id="path-1"></path>
    </defs>
    <g id="Web-VenteEnligne" stroke="none" stroke-width="1" fill="none" fill-rule="evenodd">
        <g id="HP---Boutique---Header---" transform="translate(-650.000000, -1752.000000)">
            <g id="Atoms-/-icons-/-System-/-Buy" transform="translate(650.000000, 1752.000000)">
                <mask id="mask-2" fill="white">
                    <use xlink:href="#path-1"></use>
                </mask>
                <use id="Mask" fill="#6FAD37" fill-rule="nonzero" xlink:href="#path-1"></use>
            </g>
        </g>
    </g>
</svg>