<?xml version="1.0" encoding="UTF-8"?>
<svg width="32px" height="32px" viewBox="0 0 32 32" version="1.1" xmlns="http://www.w3.org/2000/svg" xmlns:xlink="http://www.w3.org/1999/xlink">
    <title>B0BF4476-66DA-4F1B-9DA2-DF648BDB59F9</title>
    <g id="Web" stroke="none" stroke-width="1" fill="none" fill-rule="evenodd">
        <g id="Login-VF-2-Copy" transform="translate(-103.000000, -537.000000)" fill-rule="nonzero">
            <g id="Group-34" transform="translate(103.000000, 413.000000)">
                <g id="2" transform="translate(0.000000, 124.000000)">
                    <rect id="Rectangle-5" x="0" y="0" width="32" height="32"></rect>
                    <g id="id-card" transform="translate(0.800000, 0.800000)">
                        <rect id="Rectangle-9" x="0" y="0" width="30.4" height="30.4"></rect>
                        <g id="Group-4" transform="translate(1.000000, 3.533333)">
                            <path d="M28.3294222,21.8302141 C28.3284741,22.6513394 27.6497778,23.3168043 26.8123259,23.3176758 L1.52841481,23.3176758 C0.690962963,23.3168043 0.0122666667,22.6513394 0.0113777778,21.8302141 L0.0113777778,6.459737 C0.0122666667,5.63861162 0.690962963,4.97314679 1.52841481,4.97227523 L10.1249778,4.97227523 L10.1249778,8.72335168 C10.1808593,13.0244985 12.2552889,17.0604006 15.7479704,19.6633425 L18.7467259,21.9913945 C19.3263407,22.4349021 20.139437,22.4349021 20.7190519,21.9913945 L23.7170963,19.6638654 C25.7536593,18.1095841 27.3431111,16.0628716 28.3294222,13.7244771 L28.3294222,21.8302141 L28.3294222,21.8302141 Z M28.329363,8.72340979 C28.2723556,12.7213119 26.339437,16.4703547 23.089837,18.8857951 L20.0913185,21.2138471 C19.8804148,21.3746208 19.5851852,21.3746208 19.3742815,21.2138471 L16.3748148,18.8853303 C13.1258074,16.4697737 11.1933037,12.7209633 11.1362963,8.72340979 L11.1362963,4.1782263 C11.1384296,4.03656881 11.2233481,3.90868196 11.3545481,3.84947401 L19.1397333,0.147262997 C19.5146074,-0.0296055046 19.9512296,-0.0296055046 20.326163,0.147262997 L28.1111111,3.84947401 C28.2424296,3.90862385 28.3273481,4.03656881 28.329363,4.1782263 L28.329363,8.72340979 Z" id="Shape" fill="#FCB718"></path>
                            <path d="M19.7058963,4.02035339 C22.4848593,4.01675535 24.7417481,6.22075535 24.7491149,8.94548318 C24.756563,11.6702691 22.511763,13.8861223 19.7328,13.8970479 C16.9469037,13.8994862 14.6846815,11.6902569 14.6760296,8.95867278 C14.6760296,6.23388685 16.9269333,4.02401835 19.7058963,4.02035339 Z M19.7328593,5.01207287 C17.5053037,5.00917125 15.6956444,6.77466055 15.6874074,8.95878899 C15.6874074,11.135945 17.4854519,12.901841 19.7058963,12.905507 C21.9263407,12.909104 23.7304296,11.1490765 23.7379192,8.97197859 C23.7453037,6.79482263 21.9533037,5.023 19.7328593,5.01207287 Z M21.0304,7.59665749 C21.2280889,7.40474006 21.5468444,7.40549541 21.7436444,7.59840061 C21.9404444,7.79130581 21.9412148,8.10384709 21.7454815,8.29774006 L21.7454815,8.29774006 L19.2629926,10.7318318 C19.1681778,10.8248563 19.0395852,10.8770917 18.9054815,10.8770917 C18.7713778,10.8770917 18.6427852,10.8248563 18.5479704,10.7318318 L18.5479704,10.7318318 L17.7202963,9.92029358 C17.5235556,9.72657492 17.5239111,9.41322018 17.7210667,9.21990826 C17.9182222,9.02659633 18.2378074,9.02630581 18.4353778,9.21921101 L18.4353778,9.21921101 L18.9054815,9.68014985 Z" id="Combined-Shape" fill="#FFFFFF"></path>
                            <path d="M6.07952593,20.3427523 C6.35881481,20.3427523 6.58512593,20.5647095 6.58512593,20.8385535 C6.58512593,21.1123976 6.35875556,21.3343547 6.07946667,21.3343547 L6.07946667,21.3343547 L2.14862222,21.3343547 C1.86933333,21.3343547 1.64296296,21.1123976 1.64296296,20.8385535 C1.64296296,20.5647095 1.86933333,20.3427523 2.14862222,20.3427523 L2.14862222,20.3427523 Z M10.1249185,18.3594312 C10.4042074,18.3594312 10.6305778,18.5813884 10.6305778,18.8552324 C10.6305778,19.1290765 10.4042074,19.3510336 10.1249185,19.3510336 L10.1249185,19.3510336 L2.14862222,19.3510336 C1.86933333,19.3510336 1.64296296,19.1290765 1.64296296,18.8552324 C1.64296296,18.5813884 1.86933333,18.3594312 2.14862222,18.3594312 L2.14862222,18.3594312 Z M6.07946667,6.95559633 C6.84776296,6.89313456 7.60515556,7.16511927 8.15057778,7.69932722 C8.48355556,8.08072171 8.64805926,8.57634862 8.60788148,9.07685627 L8.60788148,9.07685627 L8.60788148,9.89711009 C8.72728889,10.0664832 8.79140741,10.2674067 8.79182222,10.4733272 L8.79182222,10.4733272 L8.79182222,11.1841131 C8.79235556,11.5362813 8.60717037,11.8637554 8.30222222,12.0498624 C8.16628148,12.4029021 7.98405926,12.7370581 7.76,13.0439052 C7.73546667,13.077315 7.71164444,13.1088073 7.68841481,13.1383242 L7.68841481,13.1383242 L7.68841481,13.6278502 C7.68948148,13.6852569 7.7234963,13.7371437 7.7762963,13.7619541 L7.7762963,13.7619541 L9.5330963,14.6107951 L9.67348217,14.6849711 C10.263929,15.0266067 10.6314075,15.6512671 10.6306382,16.3311376 L10.6306382,16.3311376 L10.6306382,16.8719694 C10.6306382,17.0035168 10.577363,17.1296606 10.4825481,17.2226269 C10.3876741,17.3156514 10.2590222,17.3678288 10.1249185,17.3678288 L10.1249185,17.3678288 L2.03407407,17.3678288 C1.89991111,17.3678288 1.77125926,17.3155933 1.67644444,17.2226269 C1.58157037,17.1296024 1.52835551,17.0034587 1.52835551,16.8719694 L1.52835551,16.8719694 L1.52835551,16.2962752 C1.52954074,15.5894985 1.92722963,14.9406514 2.5632,14.6078899 L2.5632,14.6078899 L4.20367407,13.7431284 C4.25392593,13.7175046 4.28574815,13.666896 4.28663704,13.6114067 L4.28663704,13.6114067 L4.28663704,13.1286789 C4.01682963,12.7590795 3.81155556,12.3479939 3.67922963,11.9123884 C3.47952593,11.7207034 3.36705185,11.4581896 3.36711111,11.1841713 L3.36711111,11.1841713 L3.36711111,10.4733853 C3.36752593,10.2674648 3.43164444,10.0665413 3.55105185,9.8971682 L3.55105185,9.8971682 L3.55105185,9.07691437 C3.51087407,8.57658104 3.67531852,8.08112844 4.00811852,7.69985015 C4.55342222,7.16523547 5.31099259,6.89301835 6.07946667,6.95559633 Z M6.25599306,7.93816656 L6.07952593,7.94714067 C5.60438519,7.8978104 5.12971852,8.04463914 4.76942222,8.3524159 C4.61961481,8.52940061 4.544,8.75565749 4.55804444,8.9852844 C4.56100741,9.00707339 4.56248889,9.0290948 4.56248889,9.05111621 L4.56248889,9.05111621 L4.56248889,10.0790917 C4.56248889,10.220633 4.50074074,10.3554343 4.39282963,10.4495046 L4.39282963,10.4495046 L4.37848889,11.184055 C4.49706667,11.2640061 4.58263704,11.3828287 4.61973333,11.5191407 C4.72485926,11.9273792 4.91531852,12.3097034 5.17902222,12.642 C5.25540741,12.7317125 5.29748148,12.8447248 5.29801481,12.9615719 L5.29801481,12.9615719 L5.29801481,13.6113486 C5.29736296,14.0317309 5.06115556,14.4177156 4.6832,14.6160826 L4.6832,14.6160826 L3.04219259,15.481367 C2.73428148,15.6413853 2.54115556,15.9545657 2.53973333,16.2962752 L2.53973333,16.2962752 L2.53973333,16.3761682 L9.61931852,16.3761682 L9.61931852,16.3310214 C9.61872593,15.9768777 9.41161481,15.6542263 9.08622222,15.5005994 L9.08622222,15.5005994 L7.32965926,14.6518165 C6.92971852,14.461526 6.67608889,14.06363 6.67703704,13.6277339 L6.67703704,13.6277339 L6.67703704,12.9615138 C6.67703704,12.8397278 6.72272593,12.7221835 6.80545185,12.6313089 C6.85285926,12.5780856 6.89736296,12.5224801 6.93878519,12.4647248 C7.14494815,12.1814679 7.3053037,11.8686942 7.41434074,11.5375015 C7.4656,11.3839908 7.58986667,11.2645872 7.74743704,11.2174648 L7.74743704,11.2174648 L7.7805037,10.473211 C7.66791111,10.3712385 7.60165926,10.2292905 7.59656296,10.0790917 L7.59656296,10.0790917 L7.59656296,9.05111621 C7.59656296,9.0290948 7.59804444,9.0071315 7.60100741,8.9852844 C7.61564444,8.75176453 7.53712593,8.5219052 7.38198519,8.34416514 C7.02133333,8.04295413 6.55075556,7.89949541 6.07952593,7.94714067 Z" id="Combined-Shape" fill="#FFFFFF"></path>
                        </g>
                    </g>
                </g>
            </g>
        </g>
    </g>
</svg>