<?xml version="1.0" encoding="utf-8"?>
<!-- Generator: Adobe Illustrator 27.2.0, SVG Export Plug-In . SVG Version: 6.00 Build 0)  -->
<svg version="1.1" id="uuid-98151945-b12e-4169-a481-d7e7957e7ce4"
	 xmlns="http://www.w3.org/2000/svg" xmlns:xlink="http://www.w3.org/1999/xlink" x="0px" y="0px" viewBox="0 0 44.5 37.6"
	 style="enable-background:new 0 0 44.5 37.6;" xml:space="preserve">
<style type="text/css">
	.st0{fill:#E5E8ED;}
	.st1{fill:#E75855;}
	.st2{fill:#383248;}
	.st3{fill:#B36E49;}
	.st4{fill:#EFDFC4;}
	.st5{fill:#386D96;}
	.st6{fill:#1C4769;}
	.st7{fill:#483D67;}
	.st8{fill:#BD6230;}
</style>
<g id="uuid-d7e3a0b0-34ec-4a69-a425-92dc2a7394d4">
	<path class="st0" d="M12.6,1.6c-3-1.5-5.5,0.1-6.7,0.7S3.4,4,2.5,6.1s2.8,6.6,3.5,10.1s-4.1,5.2-5.6,9.5c-1.5,4.2,2.5,8.4,5.6,10.6
		s16.9,2.4,25.8-3.2c8.8-5.6,15.1-13.5,12-20.4c-3.1-6.9-16.5-6.3-18.5-6.6C23.1,5.8,16.3,3.4,12.6,1.6L12.6,1.6z"/>
</g>
<g id="uuid-2de91426-30d1-4ef7-8c64-f77ee8643a53">
	<path class="st1" d="M16,27.6c-0.3-0.8-2.1-8.1-2.8-10.9c0.2-3.1,2.6-2.5,4.3-2.4c4.7,0.7,5.5-0.3,8.5-0.3c1.2,0,2.9,1.2,2.8,2.1
		L28.1,22l-1.5,6.3l0.5,3.7l-12,0.2C15.1,32.1,16.4,28.6,16,27.6L16,27.6z"/>
	<path class="st2" d="M11.6,16.6c0.9-2.3,2.9-2,2.9-4c-0.7-4.6,1.8-4.3,1.7-6.4c-0.1-1.5,1-6.4,5.5-6.2h0.1c5,0.5,5.3,3.2,5.3,5.3
		c0,1.1,1,2.8,0.4,4.9c-0.9,2.8,0.2,3.4,1.3,4.8c3.1,3.9-1.7,7.8-1.7,7.8l-13.3-0.4C11.1,21.9,10.7,18.9,11.6,16.6z"/>
	<path class="st3" d="M19.3,14.1c0.1-1.9,0-4.5-0.1-5.9c0.1-0.2,0.2-0.4,0.3-0.6l4,3.3c-0.2,0.6-0.2,2.1-0.2,3.3c0,0.7,0.9,1,0.9,1
		l-3.3,0.5l-2.4-0.2C19.1,15.1,19.3,14.8,19.3,14.1z"/>
	<path class="st4" d="M16,27.6c-0.3-0.8-2.1-8.1-2.8-10.9c0.2-3.1,2.6-2.5,4.3-2.4c4.7,0.7,5.5-0.3,8.5-0.3c1.2,0,2.9,1.2,2.8,2.1
		L28.1,22l-1.5,6.3l0.5,3.7l-12,0.2C15.1,32.1,16.4,28.6,16,27.6L16,27.6z"/>
	<path class="st3" d="M26.9,26.9l1.2-5l0.8-5.8l0.5,10.5c-0.1,0.1-0.2,0.2-0.3,0.3L26.9,26.9L26.9,26.9z"/>
	<path class="st5" d="M27.4,26.2c0-0.1,0-0.3,0-0.4l4.1-8.8c0.1-0.2,0.3-0.3,0.5-0.3l11.2,0.1c0.4,0,0.7,0.5,0.5,0.8l-4.1,8.7
		c0,0.4-0.4,0.8-0.8,0.8l-18-0.1c-0.4,0-0.8-0.4-0.8-0.8L27.4,26.2L27.4,26.2z"/>
	<path class="st3" d="M26.9,27L26.9,27H29c0,0,0,0,0,0l6.5,0c0.4-0.3,0.3-0.6,0.5-1.4c0.1-0.7,0.6-0.4,0.6-0.4l-0.1,1.2l0.3-0.8
		c0,0,0-1.1,0.3-1.6s0.5,0.1,0.5,0.1c0.1-0.7,0.6-0.3,0.6-0.3l0.3,1.7c0.2-1.1,0.8-0.8,0.8-0.8c0,0.2-0.1,1.5-0.1,1.5
		s-0.4,0.2-1,0.6c0,0-0.5,0.7-0.8,0.8c-0.3,0.1-1.1,0.2-2,0.3c-0.5,0-6.8,0.6-8.6,1.1c0,0-0.1-0.9-0.1-0.9L26.9,27L26.9,27L26.9,27z
		"/>
	<path class="st3" d="M13.9,15.1c2.7-2,2.2,5.3,2.2,5.3l-1.4,6.4c0.3-0.1,0.7-0.1,1.2-0.3c1.8-0.4,3.1-1.1,3.1-1.1
		c0.5-0.2,1.5-0.7,1.6-0.8s2-0.7,2.4-0.9c0.4-0.2,0.5-0.3,0.9-0.2c0,0,1.3-0.1,1.5-0.2s1.3,0.4,1.7,0.4c0,0,0.3,0.5-1.4,0.2
		c0,0,0,0,0,0c0.4,0.3,1.4,1.1,1.6,1.2c0,0,0,0.4-1,0l0.2,0.2c0,0.2-0.6,0.1-0.8,0c-0.4-0.1-0.9-0.5-1.3-0.7
		c-0.5,0.4-1.1,0.7-1.3,0.9c-0.6,0.4-1.8,0.4-2,0.2l-2.2,1.7c-0.5,0.5-5.5,4.2-7,3.1c-0.1,0-0.3-1.5-0.3-2
		C11.6,28.3,13.2,15.4,13.9,15.1z"/>
	<path class="st6" d="M34.7,21.9c0,0.4,0.5,0.7,1.2,0.7s1.2-0.3,1.2-0.7s-0.5-0.7-1.2-0.7S34.7,21.5,34.7,21.9z"/>
	<path class="st7" d="M25.2,3.2C25.2,3.2,25.2,3.2,25.2,3.2C25.2,3.2,25.2,3.2,25.2,3.2z"/>
	<path class="st3" d="M25.2,3.8c0.2,0.8,0.4,1.5,0.4,2.1c0,1-0.7,5.5-2,5.5c-1.6-0.1-4.5-1.3-4.4-3.5C20.3,5.6,23.9,6.8,25.2,3.8
		L25.2,3.8z"/>
	<path class="st8" d="M15.7,32.1l10.6-0.2c0.2,0.7,0.7,3.6,0.9,4.6c-2.4,0-7.4,0.1-13.5,0.1C14,33.5,14.8,33.5,15.7,32.1z"/>
</g>
</svg>
