<?xml version="1.0" encoding="UTF-8"?>
<svg width="105px" height="92px" viewBox="0 0 105 92" version="1.1" xmlns="http://www.w3.org/2000/svg" xmlns:xlink="http://www.w3.org/1999/xlink">
    <title>96FD64BE-165B-49A8-8817-2AEEC30C7767</title>
    <defs>
        <circle id="path-1" cx="20" cy="20" r="20"></circle>
        <filter x="-62.5%" y="-50.0%" width="225.0%" height="225.0%" filterUnits="objectBoundingBox" id="filter-2">
            <feOffset dx="0" dy="5" in="SourceAlpha" result="shadowOffsetOuter1"></feOffset>
            <feGaussianBlur stdDeviation="7.5" in="shadowOffsetOuter1" result="shadowBlurOuter1"></feGaussianBlur>
            <feColorMatrix values="0 0 0 0 0   0 0 0 0 0   0 0 0 0 0  0 0 0 0.0818607357 0" type="matrix" in="shadowBlurOuter1"></feColorMatrix>
        </filter>
    </defs>
    <g id="Web-VenteEnligne" stroke="none" stroke-width="1" fill="none" fill-rule="evenodd">
        <g id="HP---Boutique---Rev-2" transform="translate(-807.000000, -1125.000000)">
            <g id="Group-9" transform="translate(822.000000, 1135.000000)">
                <g id="Group-27" transform="translate(20.000000, 12.000000)" stroke-linecap="round" stroke-linejoin="round" stroke-width="2.21109677">
                    <polyline id="Stroke-1" stroke="#F9AC19" points="18.6451613 54.8387097 18.6451613 68 13.1612903 63.6129032 7.67741935 68 7.67741935 61.4193548"></polyline>
                    <path d="M5.48387097,43.0726258 L5.48387097,41.677529 C5.48387097,40.4658677 6.46603226,39.4839806 7.67741935,39.4839806 L9.07251613,39.4839806 C9.65435484,39.4839806 10.2123387,39.2528355 10.623629,38.841271 L11.6101774,37.8547226 C12.4670323,36.9981419 13.8555484,36.9981419 14.7124032,37.8547226 L15.6989516,38.841271 C16.1102419,39.2528355 16.6682258,39.4839806 17.2500645,39.4839806 L18.6451613,39.4839806 C19.8565484,39.4839806 20.8387097,40.4658677 20.8387097,41.677529 L20.8387097,43.0726258 C20.8387097,43.6544645 21.0698548,44.2124484 21.4811452,44.6237387 L22.4676935,45.6102871 C23.3242742,46.4668677 23.3242742,47.8556581 22.4676935,48.7122387 L21.4811452,49.6990613 C21.0698548,50.1103516 20.8387097,50.6683355 20.8387097,51.2499 L20.8387097,52.645271 C20.8387097,53.8566581 19.8565484,54.8388194 18.6451613,54.8388194 L17.2497903,54.8388194 C16.6682258,54.8388194 16.1102419,55.0696903 15.6989516,55.4812548 L14.7124032,56.4678032 C13.8555484,57.3243839 12.4670323,57.3243839 11.6101774,56.4678032 L10.623629,55.4812548 C10.2123387,55.0696903 9.65435484,54.8388194 9.07279032,54.8388194 L7.67741935,54.8388194 C6.46603226,54.8388194 5.48387097,53.8566581 5.48387097,52.645271 L5.48387097,51.2499 C5.48387097,50.6683355 5.25272581,50.1103516 4.84143548,49.6990613 L3.8548871,48.7122387 C2.99830645,47.8556581 2.99830645,46.4668677 3.8548871,45.6102871 L4.84143548,44.6237387 C5.25272581,44.2124484 5.48387097,43.6544645 5.48387097,43.0726258 Z" id="Stroke-3" stroke="#F9AC19"></path>
                    <path d="M6.58064516,8.77419355 L0,8.77419355 L0,6.58064516 C0,2.94620968 2.94620968,0 6.58064516,0 C10.2150806,0 13.1612903,2.94620968 13.1612903,6.58064516 L13.1612903,29.6129032" id="Stroke-5" stroke="#0075C9"></path>
                    <path d="M54.8387097,35.1152548 L54.8387097,7.67752903 C54.8387097,3.4374 51.4014194,0.000109677412 47.1612903,0.000109677412 L6.58064516,0.000109677412" id="Stroke-7" stroke="#0075C9"></path>
                    <line x1="25.2258065" y1="14.2580645" x2="42.7741935" y2="14.2580645" id="Stroke-9" stroke="#0075C9"></line>
                    <line x1="25.2258065" y1="21.9354839" x2="42.7741935" y2="21.9354839" id="Stroke-11" stroke="#0075C9"></line>
                    <line x1="25.2258065" y1="29.6129032" x2="34" y2="29.6129032" id="Stroke-13" stroke="#0075C9"></line>
                    <line x1="44.0003048" y1="55.9354839" x2="26.3224984" y2="55.9354839" id="Stroke-15" stroke="#0075C9"></line>
                    <path d="M65.8064516,63.6129032 L66.7450161,61.266629 C67.5739032,59.194 68,56.9818065 68,54.7495968 L68,42.0278387 C68,38.9826452 66.8483871,36.0501452 64.7763065,33.8184839 L54.8387097,23.1167097" id="Stroke-17" stroke="#172C51"></path>
                    <path d="M47.1612903,63.6129032 L47.1612903,60.3225806 C47.1612903,60.3225806 42.7741935,55.9354839 42.7741935,51.5483871" id="Stroke-19" stroke="#172C51"></path>
                    <polyline id="Stroke-21" stroke="#172C51" points="44.9677419 68 44.9677419 63.6129032 68 63.6129032 68 68"></polyline>
                    <path d="M58.1287581,38.3870968 L48.2580645,28.5712419 C46.7653548,27.0782581 44.3220161,27.0782581 42.8293065,28.5712419 C41.3363226,30.0642258 41.3363226,32.5070161 42.8293065,34 L50.4513387,41.6774194 C50.4513387,41.6774194 50.4513387,50.4516129 57.0319839,54.8387097" id="Stroke-23" stroke="#172C51"></path>
                    <path d="M57.0319839,54.8387097 C53.0443871,52.180129 51.4798387,47.9197097 50.8607097,44.9677419" id="Stroke-25" stroke="#464646"></path>
                </g>
                <g id="Oval-Copy-6">
                    <use fill="black" fill-opacity="1" filter="url(#filter-2)" xlink:href="#path-1"></use>
                    <use fill="#0075C9" fill-rule="evenodd" xlink:href="#path-1"></use>
                </g>
                <text id="3" font-family="HelveticaNeue-CondensedBlack, Helvetica Neue" font-size="24" font-style="condensed" font-weight="700" fill="#FFFFFF">
                    <tspan x="14" y="29">3</tspan>
                </text>
            </g>
        </g>
    </g>
</svg>