<svg id="Icon_-_KFZ" data-name="Icon - KFZ" xmlns="http://www.w3.org/2000/svg" width="50" height="37.534" viewBox="0 0 50 37.534"><path id="Pfad_3171" data-name="Pfad 3171" d="M45.6,196.179l-1.864-5.724a5.98,5.98,0,0,0-5.686-4.128H25.77a5.98,5.98,0,0,0-5.686,4.128l-1.864,5.724a5.96,5.96,0,0,0-4.247,5.7v9.568a3.592,3.592,0,0,0,3.588,3.588h1.2a3.592,3.592,0,0,0,3.588-3.588v-1.2H41.48v1.2a3.592,3.592,0,0,0,3.588,3.588h1.2a3.592,3.592,0,0,0,3.588-3.588v-9.568A5.959,5.959,0,0,0,45.6,196.179ZM22.359,191.2a3.58,3.58,0,0,1,3.411-2.477H38.054a3.58,3.58,0,0,1,3.411,2.476l1.53,4.7H20.829Zm-2.406,20.246a1.2,1.2,0,0,1-1.2,1.2h-1.2a1.2,1.2,0,0,1-1.2-1.2v-1.2h3.588Zm27.507,0a1.2,1.2,0,0,1-1.2,1.2h-1.2a1.2,1.2,0,0,1-1.2-1.2v-1.2H47.46Zm0-5.98v2.392H16.365v-5.979a3.592,3.592,0,0,1,3.588-3.588H43.871a3.592,3.592,0,0,1,3.588,3.588Z" transform="translate(-13.973 -177.495)" fill="#666"></path><path id="Pfad_3172" data-name="Pfad 3172" d="M63.093,344.469h0a3.214,3.214,0,1,0,0,6.385l.81.008c3.134,0,3.6-1.606,3.6-2.564C67.5,346.326,65.019,344.469,63.093,344.469Zm.81,4.475c-.281,0-.561-.008-.81-.008-1,0-1.662-.51-1.662-1.275s.665-1.275,1.662-1.275,2.493,1.148,2.493,1.912c0,.573-.842.645-1.683.645Z" transform="translate(-55.533 -321.815)" fill="#666"></path><path id="Pfad_3173" data-name="Pfad 3173" d="M301.66,344.469c-1.926,0-4.411,1.857-4.411,3.831,0,.957.468,2.564,3.6,2.564l.81-.008a3.214,3.214,0,1,0,0-6.386Zm0,4.467c-.249,0-.53.008-.81.008-.842,0-1.683-.072-1.683-.645,0-.765,1.5-1.912,2.493-1.912s1.662.51,1.662,1.275S302.658,348.936,301.66,348.936Z" transform="translate(-272.49 -321.815)" fill="#666"></path><path id="Pfad_3174" data-name="Pfad 3174" d="M335.993,89.609l-9.711-4.157a2.215,2.215,0,0,0-1.716,0l-9.712,4.157a2.232,2.232,0,0,0-1.336,2.05q0,.681.038,1.362L316.6,95.2q-.045-.275-.083-.551a22.121,22.121,0,0,1-.2-2.621l9.109-3.9,9.11,3.9a21.045,21.045,0,0,1-3.034,10.685,14.517,14.517,0,0,1-6.071,5.778,9.651,9.651,0,0,1-1.26-.678v3.177c.138.063.277.124.415.18a2.189,2.189,0,0,0,.843.17,2.215,2.215,0,0,0,.841-.167,17.1,17.1,0,0,0,7.618-7,23.921,23.921,0,0,0,3.447-12.5A2.211,2.211,0,0,0,335.993,89.609Z" transform="translate(-287.338 -85.281)" fill="#1980d0"></path><path id="Pfad_3175" data-name="Pfad 3175" d="M394.146,163.078h-2.572v-2.572a1.573,1.573,0,1,0-3.146,0v2.572h-2.572a1.573,1.573,0,0,0,0,3.147h2.572V168.8a1.573,1.573,0,1,0,3.146,0v-2.572h2.572a1.573,1.573,0,1,0,0-3.147Z" transform="translate(-351.917 -152.496)" fill="#1980d0"></path></svg>