<?xml version="1.0" encoding="UTF-8"?>
<svg width="30px" height="31px" viewBox="0 0 30 31" version="1.1" xmlns="http://www.w3.org/2000/svg" xmlns:xlink="http://www.w3.org/1999/xlink">
    <title>B17C5B90-BDD3-441E-ADDB-E6862FBF9586</title>
    <g id="Web" stroke="none" stroke-width="1" fill="none" fill-rule="evenodd">
        <g id="Login-VF-2-Copy" transform="translate(-103.000000, -647.000000)" fill-rule="nonzero">
            <g id="Group-34" transform="translate(103.000000, 413.000000)">
                <g id="order" transform="translate(0.000000, 234.000000)">
                    <path d="M15.1096531,0 C16.9059796,0 18.3673469,1.44206677 18.3673469,3.21453418 L18.3673469,3.21453418 L18.3673469,7.24960254 L30,7.24960254 L30,23.5612083 L18.3673469,23.5612083 L18.3673469,27.5962766 C18.3673469,29.368744 16.9059796,30.8108108 15.1096531,30.8108108 L15.1096531,30.8108108 L3.25769388,30.8108108 C1.46142857,30.8108108 0,29.368744 0,27.5962766 L0,27.5962766 L0,3.21453418 C0,1.44206677 1.46142857,0 3.25769388,0 L3.25769388,0 Z M12.5208367,1.81240064 L5.84644898,1.81240064 L6.9484898,3.62480127 L11.4187959,3.62480127 L12.5208367,1.81240064 Z" id="Shape" fill="rgb(41, 140, 197)"></path>
                    <path d="M11.3513514,25.1351351 L11.3513514,26.7567568 L7.2972973,26.7567568 L7.2972973,25.1351351 L11.3513514,25.1351351 Z M14.1442102,10.5405405 L15.4054054,11.8146632 L7.83781802,19.4594595 L4.05405405,15.6370313 L5.31530871,14.3629086 L7.83781802,16.9112141 L14.1442102,10.5405405 Z M25.9459459,17.8378378 L25.9459459,19.4594595 L17.8378378,19.4594595 L17.8378378,17.8378378 L25.9459459,17.8378378 Z M23.5135135,14.5945946 L23.5135135,16.2162162 L18.6486486,16.2162162 L18.6486486,14.5945946 L23.5135135,14.5945946 Z M21.8918919,11.3513514 L21.8918919,12.972973 L17.8378378,12.972973 L17.8378378,11.3513514 L21.8918919,11.3513514 Z" id="Combined-Shape" fill="#FFFFFF"></path>
                </g>
            </g>
        </g>
    </g>
</svg>