<?xml version="1.0" encoding="UTF-8"?>
<svg width="48px" height="48px" viewBox="0 0 30 30" version="1.1" xmlns="http://www.w3.org/2000/svg" xmlns:xlink="http://www.w3.org/1999/xlink">
    <title>E8306A2A-ECF7-4BB4-B5ED-E58A8F6CCB50</title>
    <g id="Web" stroke="none" stroke-width="1" fill="none" fill-rule="evenodd">
        <g id="Transverse---FAQ-Copy-6" transform="translate(-559.000000, -109.000000)" fill="#FFFFFF" fill-rule="nonzero">
            <g id="Group-2" transform="translate(559.000000, 106.000000)">
                <g id="question-(2)" transform="translate(0.000000, 3.000000)">
                    <path d="M29.882168,27.1673438 L27.8226563,21.1736133 C28.8132422,19.1712305 29.3371289,16.9393359 29.3406445,14.6935547 C29.3466211,10.82625 27.8503125,7.16947266 25.1272266,4.39705078 C22.4037305,1.62410156 18.7744922,0.06328125 14.9081836,0.00193359375 C12.8825391,-0.0305859375 10.9169531,0.34265625 9.06304688,1.11005859 C7.27494141,1.85027344 5.67140625,2.92248047 4.29703125,4.29685547 C2.92259766,5.67123047 1.85039063,7.27476563 1.11023438,9.06287109 C0.342832031,10.9167773 -0.03,12.8833594 0.00205078126,14.9080078 C0.06328125,18.7743164 1.62416016,22.4035547 4.39710938,25.1271094 C7.16414063,27.8448633 10.8114844,29.3407031 14.6704688,29.3406445 C14.6780273,29.3406445 14.6859961,29.3406445 14.6935547,29.3406445 C16.9393359,29.3371289 19.1712305,28.8132422 21.1736719,27.8226563 L27.1674023,29.882168 C27.3979102,29.9613867 27.6341602,30 27.867832,30 C28.4229492,30 28.9629492,29.7819141 29.3724023,29.3723438 C29.9541797,28.7905664 30.1495898,27.9456445 29.882168,27.1673438 Z M28.1146875,28.1146875 C28.0556836,28.1736914 27.9293555,28.2632227 27.7453125,28.2000586 L21.3941016,26.0176758 C21.3001758,25.9854492 21.2025,25.9693945 21.1051172,25.9693945 C20.9615625,25.9693945 20.8186523,26.0041406 20.6892188,26.0726367 C18.8536523,27.0437109 16.7794336,27.55875 14.6907422,27.5619141 C7.68585938,27.5732227 1.89140625,21.8835938 1.78042969,14.8798242 C1.72458984,11.3560547 3.06498047,8.04427734 5.5546875,5.55457031 C8.04439453,3.06492188 11.3551758,1.72476563 14.8799414,1.78048828 C21.8836523,1.89152344 27.5728125,7.68310547 27.5619141,14.6908008 C27.5586328,16.7795508 27.0436523,18.8537695 26.0726367,20.6892188 C25.9576758,20.9064844 25.9378125,21.1616602 26.0176758,21.3941016 L28.2000586,27.7453125 C28.2632813,27.9292383 28.17375,28.0557422 28.1146875,28.1146875 Z" id="Shape"></path>
                    <path d="M14.5259766,21.2547656 C14.0608008,21.2547656 13.6151367,21.6638086 13.6366406,22.1441016 C13.6582031,22.625918 14.0274023,23.0334375 14.5259766,23.0334375 C14.9911523,23.0334375 15.4368164,22.6243945 15.4153125,22.1441016 C15.39375,21.6622266 15.0245508,21.2547656 14.5259766,21.2547656 Z" id="Path"></path>
                    <path d="M14.5259766,7.48089844 C12.0861914,7.48089844 10.1012695,9.46582031 10.1012695,11.9056055 C10.1012695,12.3967383 10.4994727,12.7949414 10.9906055,12.7949414 C11.4817383,12.7949414 11.8799414,12.3967383 11.8799414,11.9056055 C11.8799414,10.4466211 13.0669922,9.25957031 14.5259766,9.25957031 C15.9849609,9.25957031 17.1720117,10.4466211 17.1720117,11.9056055 C17.1720117,13.3645898 15.9849609,14.5516406 14.5259766,14.5516406 C14.0348437,14.5516406 13.6366406,14.9498437 13.6366406,15.4409766 L13.6366406,19.0682227 C13.6366406,19.5593555 14.0348437,19.9575586 14.5259766,19.9575586 C15.0171094,19.9575586 15.4153125,19.5594141 15.4153125,19.0681641 L15.4153125,16.2404883 C17.430293,15.8276953 18.9506836,14.0408789 18.9506836,11.9056055 C18.9506836,9.46582031 16.9657617,7.48089844 14.5259766,7.48089844 Z" id="Path"></path>
                </g>
            </g>
        </g>
    </g>
</svg>