<?xml version="1.0" encoding="UTF-8"?>
<svg width="20px" height="20px" viewBox="0 0 16 19" version="1.1" xmlns="http://www.w3.org/2000/svg" xmlns:xlink="http://www.w3.org/1999/xlink">
    <title>BD32968B-CD30-4A5F-992C-E03F9BE27326</title>
    <defs>
        <path d="M2.1216,0 L3.2736,0 L4.064,2.93078053 L4.7968,0 L5.96,0 L4.628,4.3581704 L4.628,7.33249305 L3.4832,7.33249305 L3.4832,4.3581704 L2.1216,0 Z M7.3968,1.87864457 C6.5016,1.87864457 5.908,2.46448401 5.908,3.33136804 L5.908,5.98268732 C5.908,6.93586392 6.4112,7.43224409 7.3968,7.43224409 C8.2144,7.43224409 8.8576,6.89153012 8.8576,5.98268732 L8.8576,3.33136804 C8.8576,2.48506755 8.22,1.87864457 7.3968,1.87864457 Z M7.8216,5.93756185 C7.8216,6.23206492 7.6696,6.44898384 7.396,6.44898384 C7.1152,6.44898384 6.9528,6.22177314 6.9528,5.93756185 L6.9528,3.4208273 C6.9528,3.12474088 7.0904,2.90544693 7.376,2.90544693 C7.688,2.90544693 7.8216,3.11840748 7.8216,3.4208273 L7.8216,5.93756185 L7.8216,5.93756185 Z M11.6048,1.92377004 L11.6048,6.02939614 C11.4808,6.18298107 11.2048,6.4347337 11.0072,6.4347337 C10.7904,6.4347337 10.7368,6.28748216 10.7368,6.07056324 L10.7368,1.92377004 L9.7208,1.92377004 L9.7208,6.44423379 C9.7208,6.97861436 9.8856,7.41007719 10.4304,7.41007719 C10.7376,7.41007719 11.1648,7.25174221 11.6048,6.73477849 L11.6048,7.33170137 L12.6208,7.33170137 L12.6208,1.92377004 L11.6048,1.92377004 Z M13.3672,12.894801 C13.0088,12.894801 12.9344,13.1441786 12.9344,13.4988489 L12.9344,14.0205627 L13.7896064,14.0205627 L13.7896064,13.4980573 C13.7904,13.1497203 13.716,12.894801 13.3672,12.894801 Z M9.6048,12.926468 C9.5376,12.96051 9.4712,13.0127605 9.4048,13.0832196 L9.4048,16.2934614 C9.484,16.3773789 9.56,16.4375462 9.6344,16.4747549 C9.792,16.5539224 10.0224,16.5594642 10.1296,16.4217127 C10.1856,16.3488786 10.2136,16.2309191 10.2136,16.0662507 L10.2136,13.4070147 C10.2136,13.2328462 10.1792,13.1014281 10.1104,13.0111772 C9.9928,12.8583839 9.7744,12.8417588 9.6048,12.926468 L9.6048,12.926468 Z M13.4664,8.81371681 C11.3832,8.67359035 4.6136,8.67359035 2.5336,8.81371681 C0.2824,8.96571839 0.0168,10.3115657 0,13.854311 C0.0168,17.3907228 0.28,18.7429036 2.5336,18.8949052 C4.6136,19.0350316 11.3832,19.0350316 13.4664,18.8949052 C15.7176,18.7429036 15.9832,17.3962645 16,13.854311 C15.9832,10.3178991 15.72,8.96571839 13.4664,8.81371681 Z M3.6072,17.2735549 L2.5168,17.2735549 L2.5168,11.3043261 L1.3888,11.3043261 L1.3888,10.2909822 L4.7344,10.2909822 L4.7344,11.3043261 L3.6064,11.3043261 L3.6064,17.2735549 L3.6072,17.2735549 Z M7.484,17.2735549 L6.516,17.2735549 L6.516,16.7051323 C6.3376,16.9149262 6.152,17.0748445 5.9592,17.1840957 C5.4376,17.4801821 4.7216,17.473057 4.7216,16.4280461 L4.7216,12.1229179 L5.6888,12.1229179 L5.6888,16.0717924 C5.6888,16.2792112 5.7392,16.418546 5.9464,16.418546 C6.1352,16.418546 6.3976,16.1786685 6.5152,16.0330003 L6.5152,12.1229179 L7.4832,12.1229179 L7.4832,17.2735549 L7.484,17.2735549 Z M11.2096,16.2063771 C11.2096,16.8436755 10.9688,17.339264 10.3248,17.339264 C9.9704,17.339264 9.6752,17.2110126 9.4056,16.8777175 L9.4056,17.2735549 L8.4288,17.2735549 L8.4288,10.2909822 L9.4056,10.2909822 L9.4056,12.539339 C9.624,12.2757112 9.9208,12.0580006 10.2664,12.0580006 C10.9752,12.0580006 11.2104,12.6509651 11.2104,13.3492224 L11.2104,16.2063771 L11.2096,16.2063771 Z M14.7864,14.8193627 L12.9352,14.8193627 L12.9352,15.7915395 C12.9352,16.1778769 12.9688,16.5119637 13.3576,16.5119637 C13.7664,16.5119637 13.7904,16.2396275 13.7904,15.7915395 L13.7904,15.4337024 L14.7864,15.4337024 L14.7864,15.8208315 C14.7864,16.8128001 14.356,17.4144731 13.336,17.4144731 C12.412,17.4144731 11.9392,16.7478828 11.9392,15.8208315 L11.9392,13.508349 C11.9392,12.6145481 12.536,11.9930833 13.4088,11.9930833 C14.3376,11.9930833 14.7856,12.5773393 14.7856,13.508349 L14.7856,14.8193627 L14.7864,14.8193627 Z" id="path-1"></path>
    </defs>
    <g id="Web-VenteEnligne" stroke="none" stroke-width="1" fill="none" fill-rule="evenodd">
        <g id="HP---Boutique---Rev-2" transform="translate(-488.000000, -7.000000)">
            <g id="Atoms-/-icons-/-System-/-SM-Facebook-Copy-2" transform="translate(488.000000, 7.000000)">
                <mask id="mask-2" fill="white">
                    <use xlink:href="#path-1"></use>
                </mask>
                <use id="Shape" fill="#000000" fill-rule="nonzero" xlink:href="#path-1"></use>
                <g id="↪🎨" mask="url(#mask-2)" fill="#C2D1D9">
                    <g transform="translate(-4.000000, -2.000000)" id="Atoms-/-Colors-/-Black">
                        <rect x="0" y="0" width="24" height="24"></rect>
                    </g>
                </g>
            </g>
        </g>
    </g>
</svg>